<svg version="1" xmlns="http://www.w3.org/2000/svg" width="490.667" height="490.667" viewBox="0 0 368.000000 368.000000"><path d="M135.9 7.4c-.2.2-2.2.6-4.4 1-21.3 3-38.2 15.1-53.4 38.2-3.6 5.5-10.2 16.6-14.6 24.7-8.3 15.5-13.3 22.7-17.6 26-3.7 2.7-13.2 2.6-17.1-.3-1.5-1.1-2.9-2-3.1-2-.9 0-5.7 12-6.8 17-1.7 8.1-.6 22.1 2.4 30.6 5.2 14.9 13.9 24 27 28.3l6.2 2.1-.3 19.7c-.3 19.3-.2 19.7 2.3 24.9 2.7 5.4 7.1 9.5 13 12 3.2 1.3 3.5 1.7 3.5 5.8 0 3.8 2.3 13.9 6.1 27.2 1.2 4 1.1 4.4-4 14-12.3 23-24.6 34.8-38.6 36.9-5.8.9-7.1 2.6-4.3 5.2 7.3 6.7 29.1 15.2 53.2 20.8l2.9.6-4.5 4.7c-5.6 5.8-8.7 11.8-9.5 18.3l-.6 4.9h224.5l-.7-4.6c-1.2-9.1-5.2-15.8-13.5-22.3l-4.8-3.8 3.7-1.3c5.4-1.9 14.1-7.3 14.1-8.7 0-1.5 1-1.4-12-1.7-11.9-.3-14.6-.9-16-3.7-1-1.7-.7-1.9 2.7-2 6.1-.1 9.2-.8 17.2-4 8.1-3.1 13.8-6.9 12.8-8.6-.3-.5-5.1-1-10.7-1-10.3-.1-13.6-1.1-16.7-5.2-2-2.5-1.5-4.1 2.5-9.5 11.5-15.3 20.3-36.9 21.9-53.7l.6-6.9 4.1-1.9c5.3-2.3 11.2-8.4 13.2-13.7 1.3-3.3 1.5-7.7 1.2-24-.3-19.5-.4-20-3-24.5-2.8-4.8-8.1-9.1-13.5-10.9-3.6-1.3-3.7-.7 1.9-13 6.1-13.1 7.7-20.6 8.3-39.5.4-14.5-.9-21.2-6.3-32.7-4.7-10-7.5-14.2-15.3-23-11.5-12.9-29.8-24.5-45.5-28.9-9.1-2.6-25.9-3.1-35.4-1-3 .6-7.1 1.4-9 1.7-1.9.3-3.7.7-3.9.9-.2.2-2.1-.7-4.2-2.1-10.9-6.8-24.9-10.5-42-11-7.4-.2-13.7-.2-14 0z"/></svg>